NotoSansHebrew-SemiBold.ufo
<glyph name="etnahtaleft-hb" format="2">
  <unicode hex="0591"/>
  <note>
uni0591
</note>
  <anchor x="137" y="0" name="_bottomleft"/>
  <outline>
    <contour>
      <point x="50" y="-236" type="line"/>
      <point x="96" y="-236" type="line"/>
      <point x="96" y="-214" type="line" smooth="yes"/>
      <point x="96" y="-181"/>
      <point x="107" y="-168"/>
      <point x="138" y="-168" type="curve" smooth="yes"/>
      <point x="167" y="-168"/>
      <point x="178" y="-181"/>
      <point x="178" y="-214" type="curve" smooth="yes"/>
      <point x="178" y="-236" type="line"/>
      <point x="225" y="-236" type="line"/>
      <point x="225" y="-213" type="line" smooth="yes"/>
      <point x="225" y="-159"/>
      <point x="205" y="-133"/>
      <point x="161" y="-126" type="curve"/>
      <point x="161" y="-83" type="line"/>
      <point x="113" y="-83" type="line"/>
      <point x="113" y="-126" type="line"/>
      <point x="71" y="-133"/>
      <point x="50" y="-159"/>
      <point x="50" y="-213" type="curve" smooth="yes"/>
    </contour>
  </outline>
</glyph>
<glyph name="segolta-hb" format="2">
  <unicode hex="0592"/>
  <note>
uni0592
</note>
  <anchor x="205" y="546" name="_topleft"/>
  <outline>
    <contour>
      <point x="146" y="767" type="curve" smooth="yes"/>
      <point x="169" y="767"/>
      <point x="188" y="779"/>
      <point x="188" y="805" type="curve" smooth="yes"/>
      <point x="188" y="833"/>
      <point x="169" y="845"/>
      <point x="146" y="845" type="curve" smooth="yes"/>
      <point x="123" y="845"/>
      <point x="105" y="833"/>
      <point x="105" y="805" type="curve"/>
      <point x="105" y="779"/>
      <point x="123" y="767"/>
    </contour>
    <contour>
      <point x="86" y="662" type="curve" smooth="yes"/>
      <point x="109" y="662"/>
      <point x="128" y="675"/>
      <point x="128" y="702" type="curve" smooth="yes"/>
      <point x="128" y="729"/>
      <point x="109" y="741"/>
      <point x="86" y="741" type="curve" smooth="yes"/>
      <point x="63" y="741"/>
      <point x="45" y="729"/>
      <point x="45" y="702" type="curve"/>
      <point x="45" y="675"/>
      <point x="63" y="662"/>
    </contour>
    <contour>
      <point x="205" y="662" type="curve" smooth="yes"/>
      <point x="228" y="662"/>
      <point x="247" y="675"/>
      <point x="247" y="702" type="curve" smooth="yes"/>
      <point x="247" y="729"/>
      <point x="228" y="741"/>
      <point x="205" y="741" type="curve" smooth="yes"/>
      <point x="182" y="741"/>
      <point x="164" y="729"/>
      <point x="164" y="702" type="curve"/>
      <point x="164" y="675"/>
      <point x="182" y="662"/>
    </contour>
  </outline>
</glyph>
<glyph name="zaqefqatan-hb" format="2">
  <unicode hex="0594"/>
  <note>
uni0594
</note>
  <anchor x="92" y="546" name="_top"/>
  <outline>
    <contour>
      <point x="91" y="766" type="curve" smooth="yes"/>
      <point x="114" y="766"/>
      <point x="133" y="778"/>
      <point x="133" y="805" type="curve" smooth="yes"/>
      <point x="133" y="832"/>
      <point x="114" y="845"/>
      <point x="91" y="845" type="curve" smooth="yes"/>
      <point x="68" y="845"/>
      <point x="50" y="832"/>
      <point x="50" y="805" type="curve" smooth="yes"/>
      <point x="50" y="778"/>
      <point x="68" y="766"/>
    </contour>
    <contour>
      <point x="91" y="662" type="curve" smooth="yes"/>
      <point x="114" y="662"/>
      <point x="133" y="674"/>
      <point x="133" y="702" type="curve" smooth="yes"/>
      <point x="133" y="728"/>
      <point x="114" y="740"/>
      <point x="91" y="740" type="curve" smooth="yes"/>
      <point x="68" y="740"/>
      <point x="50" y="728"/>
      <point x="50" y="702" type="curve" smooth="yes"/>
      <point x="50" y="674"/>
      <point x="68" y="662"/>
    </contour>
  </outline>
</glyph>
<glyph name="zaqefgadol-hb" format="2">
  <unicode hex="0595"/>
  <note>
uni0595
</note>
  <anchor x="139" y="546" name="_top"/>
  <outline>
    <contour>
      <point x="50" y="662" type="line"/>
      <point x="102" y="662" type="line"/>
      <point x="102" y="845" type="line"/>
      <point x="50" y="845" type="line"/>
    </contour>
    <contour>
      <point x="186" y="662" type="curve" smooth="yes"/>
      <point x="209" y="662"/>
      <point x="228" y="674"/>
      <point x="228" y="702" type="curve" smooth="yes"/>
      <point x="228" y="728"/>
      <point x="209" y="740"/>
      <point x="186" y="740" type="curve" smooth="yes"/>
      <point x="163" y="740"/>
      <point x="145" y="728"/>
      <point x="145" y="702" type="curve" smooth="yes"/>
      <point x="145" y="674"/>
      <point x="163" y="662"/>
    </contour>
    <contour>
      <point x="186" y="766" type="curve" smooth="yes"/>
      <point x="209" y="766"/>
      <point x="228" y="778"/>
      <point x="228" y="805" type="curve" smooth="yes"/>
      <point x="228" y="832"/>
      <point x="209" y="845"/>
      <point x="186" y="845" type="curve" smooth="yes"/>
      <point x="163" y="845"/>
      <point x="145" y="832"/>
      <point x="145" y="805" type="curve" smooth="yes"/>
      <point x="145" y="778"/>
      <point x="163" y="766"/>
    </contour>
  </outline>
</glyph>
<glyph name="tipehaleft-hb" format="2">
  <unicode hex="0596"/>
  <note>
uni0596
</note>
  <anchor x="75" y="0" name="_bottomleft"/>
  <outline>
    <contour>
      <point x="200" y="-223" type="curve"/>
      <point x="200" y="-174" type="line"/>
      <point x="138" y="-174"/>
      <point x="100" y="-140"/>
      <point x="100" y="-83" type="curve"/>
      <point x="50" y="-83" type="line"/>
      <point x="50" y="-171"/>
      <point x="105" y="-223"/>
    </contour>
  </outline>
</glyph>
<glyph name="reviamugrash-hb" format="2">
  <unicode hex="0597"/>
  <note>
uni0597
</note>
  <anchor x="155" y="546" name="_topleft"/>
  <outline>
    <contour>
      <point x="120" y="650" type="line"/>
      <point x="190" y="727" type="line"/>
      <point x="120" y="805" type="line"/>
      <point x="50" y="727" type="line"/>
    </contour>
  </outline>
</glyph>
<glyph name="tevirleft-hb" format="2">
  <unicode hex="059B"/>
  <note>
uni059B
</note>
  <anchor x="193" y="0" name="_bottomleft"/>
  <outline>
    <contour>
      <point x="67" y="-223" type="line"/>
      <point x="164" y="-223"/>
      <point x="218" y="-170"/>
      <point x="218" y="-83" type="curve"/>
      <point x="168" y="-83" type="line"/>
      <point x="168" y="-140"/>
      <point x="129" y="-174"/>
      <point x="67" y="-174" type="curve"/>
    </contour>
    <contour>
      <point x="86" y="-126" type="curve" smooth="yes"/>
      <point x="107" y="-126"/>
      <point x="123" y="-110"/>
      <point x="123" y="-89" type="curve" smooth="yes"/>
      <point x="123" y="-68"/>
      <point x="107" y="-52"/>
      <point x="86" y="-52" type="curve" smooth="yes"/>
      <point x="66" y="-52"/>
      <point x="50" y="-69"/>
      <point x="50" y="-89" type="curve" smooth="yes"/>
      <point x="50" y="-110"/>
      <point x="66" y="-126"/>
    </contour>
  </outline>
</glyph>
<glyph name="gershayimaccent-hb" format="2">
  <unicode hex="059E"/>
  <note>
uni059E
</note>
  <anchor x="151" y="546" name="_top"/>
  <outline>
    <contour>
      <point x="201" y="650" type="curve"/>
      <point x="252" y="650" type="line"/>
      <point x="252" y="708"/>
      <point x="290" y="741"/>
      <point x="352" y="741" type="curve"/>
      <point x="352" y="791" type="line"/>
      <point x="258" y="791"/>
      <point x="201" y="739"/>
    </contour>
    <contour>
      <point x="50" y="650" type="curve"/>
      <point x="101" y="650" type="line"/>
      <point x="101" y="708"/>
      <point x="139" y="741"/>
      <point x="201" y="741" type="curve"/>
      <point x="201" y="791" type="line"/>
      <point x="105" y="791"/>
      <point x="50" y="738"/>
    </contour>
  </outline>
</glyph>
<glyph name="pazer-hb" format="2">
  <unicode hex="05A1"/>
  <note>
uni05A1
</note>
  <anchor x="126" y="546" name="_top"/>
  <outline>
    <contour>
      <point x="50" y="650" type="line"/>
      <point x="96" y="650" type="line"/>
      <point x="96" y="697" type="line"/>
      <point x="103" y="693"/>
      <point x="112" y="692"/>
      <point x="122" y="692" type="curve" smooth="yes"/>
      <point x="176" y="692"/>
      <point x="202" y="726"/>
      <point x="202" y="780" type="curve" smooth="yes"/>
      <point x="202" y="803" type="line"/>
      <point x="155" y="803" type="line"/>
      <point x="155" y="780" type="line" smooth="yes"/>
      <point x="155" y="746"/>
      <point x="145" y="734"/>
      <point x="116" y="734" type="curve" smooth="yes"/>
      <point x="105" y="734"/>
      <point x="100" y="736"/>
      <point x="96" y="740" type="curve"/>
      <point x="96" y="803" type="line"/>
      <point x="50" y="803" type="line"/>
    </contour>
  </outline>
</glyph>
<glyph name="mahapakhleft-hb" format="2">
  <unicode hex="05A4"/>
  <note>
uni05A4
</note>
  <anchor x="125" y="0" name="_bottomleft"/>
  <outline>
    <contour>
      <point x="133" y="-249" type="line"/>
      <point x="200" y="-249" type="line"/>
      <point x="117" y="-166" type="line"/>
      <point x="200" y="-83" type="line"/>
      <point x="133" y="-83" type="line"/>
      <point x="50" y="-166" type="line"/>
    </contour>
  </outline>
</glyph>
<glyph name="merkhaleft-hb" format="2">
  <unicode hex="05A5"/>
  <note>
uni05A5
</note>
  <anchor x="200" y="0" name="_bottomleft"/>
  <outline>
    <contour>
      <point x="50" y="-223" type="line"/>
      <point x="146" y="-223"/>
      <point x="200" y="-171"/>
      <point x="200" y="-83" type="curve"/>
      <point x="150" y="-83" type="line"/>
      <point x="150" y="-139"/>
      <point x="112" y="-174"/>
      <point x="50" y="-174" type="curve"/>
    </contour>
  </outline>
</glyph>
<glyph name="merkhakefulaleft-hb" format="2">
  <unicode hex="05A6"/>
  <note>
uni05A6
</note>
  <anchor x="251" y="0" name="_bottomleft"/>
  <outline>
    <contour>
      <point x="201" y="-223" type="line"/>
      <point x="298" y="-223"/>
      <point x="352" y="-170"/>
      <point x="352" y="-83" type="curve"/>
      <point x="301" y="-83" type="line"/>
      <point x="301" y="-139"/>
      <point x="264" y="-174"/>
      <point x="201" y="-174" type="curve"/>
    </contour>
    <contour>
      <point x="50" y="-223" type="line"/>
      <point x="146" y="-223"/>
      <point x="201" y="-171"/>
      <point x="201" y="-83" type="curve"/>
      <point x="150" y="-83" type="line"/>
      <point x="150" y="-139"/>
      <point x="113" y="-174"/>
      <point x="50" y="-174" type="curve"/>
    </contour>
  </outline>
</glyph>
<glyph name="telishaqetana-hb" format="2">
  <unicode hex="05A9"/>
  <note>
uni05A9
</note>
  <anchor x="144" y="546" name="_topleft"/>
  <outline>
    <contour>
      <point x="228" y="650" type="line"/>
      <point x="264" y="686" type="line"/>
      <point x="225" y="725" type="line"/>
      <point x="233" y="738"/>
      <point x="238" y="754"/>
      <point x="238" y="771" type="curve" smooth="yes"/>
      <point x="238" y="823"/>
      <point x="196" y="864"/>
      <point x="144" y="864" type="curve" smooth="yes"/>
      <point x="92" y="864"/>
      <point x="50" y="823"/>
      <point x="50" y="771" type="curve" smooth="yes"/>
      <point x="50" y="719"/>
      <point x="91" y="678"/>
      <point x="144" y="678" type="curve" smooth="yes"/>
      <point x="161" y="678"/>
      <point x="176" y="681"/>
      <point x="190" y="688" type="curve"/>
    </contour>
    <contour>
      <point x="145" y="724" type="curve" smooth="yes"/>
      <point x="119" y="724"/>
      <point x="97" y="746"/>
      <point x="97" y="771" type="curve" smooth="yes"/>
      <point x="97" y="796"/>
      <point x="120" y="818"/>
      <point x="145" y="818" type="curve" smooth="yes"/>
      <point x="169" y="818"/>
      <point x="191" y="797"/>
      <point x="191" y="771" type="curve" smooth="yes"/>
      <point x="191" y="745"/>
      <point x="170" y="724"/>
    </contour>
  </outline>
</glyph>
<glyph name="yerahbenyomoleft-hb" format="2">
  <unicode hex="05AA"/>
  <note>
uni05AA
</note>
  <anchor x="138" y="0" name="_bottomleft"/>
  <outline>
    <contour>
      <point x="113" y="-236" type="line"/>
      <point x="161" y="-236" type="line"/>
      <point x="161" y="-194" type="line"/>
      <point x="203" y="-187"/>
      <point x="225" y="-161"/>
      <point x="225" y="-106" type="curve" smooth="yes"/>
      <point x="225" y="-83" type="line"/>
      <point x="178" y="-83" type="line"/>
      <point x="178" y="-106" type="line" smooth="yes"/>
      <point x="178" y="-138"/>
      <point x="167" y="-152"/>
      <point x="138" y="-152" type="curve" smooth="yes"/>
      <point x="107" y="-152"/>
      <point x="96" y="-138"/>
      <point x="96" y="-106" type="curve" smooth="yes"/>
      <point x="96" y="-83" type="line"/>
      <point x="50" y="-83" type="line"/>
      <point x="50" y="-106" type="line" smooth="yes"/>
      <point x="50" y="-161"/>
      <point x="73" y="-188"/>
      <point x="113" y="-194" type="curve"/>
    </contour>
  </outline>
</glyph>
<glyph name="sheva-hb" format="2">
  <unicode hex="05B0"/>
  <note>
sheva
</note>
  <anchor x="92" y="0" name="_bottom"/>
  <outline>
    <contour>
      <point x="91" y="-148" type="curve" smooth="yes"/>
      <point x="114" y="-148"/>
      <point x="133" y="-136"/>
      <point x="133" y="-109" type="curve" smooth="yes"/>
      <point x="133" y="-82"/>
      <point x="114" y="-69"/>
      <point x="91" y="-69" type="curve" smooth="yes"/>
      <point x="68" y="-69"/>
      <point x="50" y="-82"/>
      <point x="50" y="-109" type="curve" smooth="yes"/>
      <point x="50" y="-136"/>
      <point x="68" y="-148"/>
    </contour>
    <contour>
      <point x="91" y="-252" type="curve" smooth="yes"/>
      <point x="114" y="-252"/>
      <point x="133" y="-240"/>
      <point x="133" y="-212" type="curve" smooth="yes"/>
      <point x="133" y="-186"/>
      <point x="114" y="-174"/>
      <point x="91" y="-174" type="curve" smooth="yes"/>
      <point x="68" y="-174"/>
      <point x="50" y="-186"/>
      <point x="50" y="-212" type="curve" smooth="yes"/>
      <point x="50" y="-240"/>
      <point x="68" y="-252"/>
    </contour>
  </outline>
</glyph>
<glyph name="hatafsegol-hb" format="2">
  <unicode hex="05B1"/>
  <note>
hatafsegol
</note>
  <anchor x="206" y="0" name="_bottom"/>
  <outline>
    <contour>
      <point x="319" y="-252" type="curve" smooth="yes"/>
      <point x="342" y="-252"/>
      <point x="361" y="-240"/>
      <point x="361" y="-212" type="curve" smooth="yes"/>
      <point x="361" y="-186"/>
      <point x="342" y="-174"/>
      <point x="319" y="-174" type="curve" smooth="yes"/>
      <point x="296" y="-174"/>
      <point x="278" y="-186"/>
      <point x="278" y="-212" type="curve"/>
      <point x="278" y="-240"/>
      <point x="296" y="-252"/>
    </contour>
    <contour>
      <point x="151" y="-252" type="curve" smooth="yes"/>
      <point x="174" y="-252"/>
      <point x="193" y="-240"/>
      <point x="193" y="-212" type="curve" smooth="yes"/>
      <point x="193" y="-186"/>
      <point x="174" y="-174"/>
      <point x="151" y="-174" type="curve" smooth="yes"/>
      <point x="128" y="-174"/>
      <point x="110" y="-186"/>
      <point x="110" y="-212" type="curve"/>
      <point x="110" y="-240"/>
      <point x="128" y="-252"/>
    </contour>
    <contour>
      <point x="91" y="-148" type="curve" smooth="yes"/>
      <point x="114" y="-148"/>
      <point x="133" y="-136"/>
      <point x="133" y="-109" type="curve" smooth="yes"/>
      <point x="133" y="-82"/>
      <point x="114" y="-69"/>
      <point x="91" y="-69" type="curve" smooth="yes"/>
      <point x="68" y="-69"/>
      <point x="50" y="-82"/>
      <point x="50" y="-109" type="curve"/>
      <point x="50" y="-136"/>
      <point x="68" y="-148"/>
    </contour>
    <contour>
      <point x="210" y="-148" type="curve" smooth="yes"/>
      <point x="233" y="-148"/>
      <point x="252" y="-136"/>
      <point x="252" y="-109" type="curve" smooth="yes"/>
      <point x="252" y="-82"/>
      <point x="233" y="-69"/>
      <point x="210" y="-69" type="curve" smooth="yes"/>
      <point x="187" y="-69"/>
      <point x="169" y="-82"/>
      <point x="169" y="-109" type="curve"/>
      <point x="169" y="-136"/>
      <point x="187" y="-148"/>
    </contour>
    <contour>
      <point x="319" y="-148" type="curve" smooth="yes"/>
      <point x="342" y="-148"/>
      <point x="361" y="-136"/>
      <point x="361" y="-109" type="curve" smooth="yes"/>
      <point x="361" y="-82"/>
      <point x="342" y="-69"/>
      <point x="319" y="-69" type="curve" smooth="yes"/>
      <point x="296" y="-69"/>
      <point x="278" y="-82"/>
      <point x="278" y="-109" type="curve"/>
      <point x="278" y="-136"/>
      <point x="296" y="-148"/>
    </contour>
  </outline>
</glyph>
<glyph name="hatafpatah-hb" format="2">
  <unicode hex="05B2"/>
  <note>
hatafpatah
</note>
  <anchor x="201" y="0" name="_bottom"/>
  <outline>
    <contour>
      <point x="50" y="-134" type="line"/>
      <point x="243" y="-134" type="line"/>
      <point x="243" y="-83" type="line"/>
      <point x="50" y="-83" type="line"/>
    </contour>
    <contour>
      <point x="310" y="-252" type="curve" smooth="yes"/>
      <point x="333" y="-252"/>
      <point x="352" y="-240"/>
      <point x="352" y="-212" type="curve" smooth="yes"/>
      <point x="352" y="-186"/>
      <point x="333" y="-174"/>
      <point x="310" y="-174" type="curve" smooth="yes"/>
      <point x="287" y="-174"/>
      <point x="269" y="-186"/>
      <point x="269" y="-212" type="curve" smooth="yes"/>
      <point x="269" y="-240"/>
      <point x="287" y="-252"/>
    </contour>
    <contour>
      <point x="310" y="-148" type="curve" smooth="yes"/>
      <point x="333" y="-148"/>
      <point x="352" y="-136"/>
      <point x="352" y="-109" type="curve" smooth="yes"/>
      <point x="352" y="-82"/>
      <point x="333" y="-69"/>
      <point x="310" y="-69" type="curve" smooth="yes"/>
      <point x="287" y="-69"/>
      <point x="269" y="-82"/>
      <point x="269" y="-109" type="curve" smooth="yes"/>
      <point x="269" y="-136"/>
      <point x="287" y="-148"/>
    </contour>
  </outline>
</glyph>
<glyph name="hiriq-hb" format="2">
  <unicode hex="05B4"/>
  <note>
hiriq
</note>
  <anchor x="92" y="0" name="_bottom"/>
  <outline>
    <contour>
      <point x="91" y="-148" type="curve" smooth="yes"/>
      <point x="114" y="-148"/>
      <point x="133" y="-136"/>
      <point x="133" y="-109" type="curve" smooth="yes"/>
      <point x="133" y="-82"/>
      <point x="114" y="-69"/>
      <point x="91" y="-69" type="curve" smooth="yes"/>
      <point x="68" y="-69"/>
      <point x="50" y="-82"/>
      <point x="50" y="-109" type="curve" smooth="yes"/>
      <point x="50" y="-136"/>
      <point x="68" y="-148"/>
    </contour>
  </outline>
</glyph>
<glyph name="tsere-hb" format="2">
  <unicode hex="05B5"/>
  <note>
tsere
</note>
  <anchor x="162" y="0" name="_bottom"/>
  <outline>
    <contour>
      <point x="220" y="-150" type="curve" smooth="yes"/>
      <point x="243" y="-150"/>
      <point x="262" y="-137"/>
      <point x="262" y="-110" type="curve" smooth="yes"/>
      <point x="262" y="-83"/>
      <point x="243" y="-70"/>
      <point x="220" y="-70" type="curve" smooth="yes"/>
      <point x="196" y="-70"/>
      <point x="178" y="-83"/>
      <point x="178" y="-110" type="curve"/>
      <point x="178" y="-137"/>
      <point x="196" y="-150"/>
    </contour>
    <contour>
      <point x="102" y="-150" type="curve" smooth="yes"/>
      <point x="125" y="-150"/>
      <point x="144" y="-136"/>
      <point x="144" y="-110" type="curve" smooth="yes"/>
      <point x="144" y="-82"/>
      <point x="125" y="-69"/>
      <point x="102" y="-69" type="curve" smooth="yes"/>
      <point x="78" y="-69"/>
      <point x="60" y="-82"/>
      <point x="60" y="-110" type="curve"/>
      <point x="60" y="-136"/>
      <point x="78" y="-150"/>
    </contour>
  </outline>
</glyph>
<glyph name="segol-hb" format="2">
  <unicode hex="05B6"/>
  <note>
segol
</note>
  <anchor x="151" y="0" name="_bottom"/>
  <outline>
    <contour>
      <point x="210" y="-148" type="curve" smooth="yes"/>
      <point x="233" y="-148"/>
      <point x="252" y="-136"/>
      <point x="252" y="-109" type="curve" smooth="yes"/>
      <point x="252" y="-82"/>
      <point x="233" y="-69"/>
      <point x="210" y="-69" type="curve" smooth="yes"/>
      <point x="187" y="-69"/>
      <point x="169" y="-82"/>
      <point x="169" y="-109" type="curve"/>
      <point x="169" y="-136"/>
      <point x="187" y="-148"/>
    </contour>
    <contour>
      <point x="151" y="-252" type="curve" smooth="yes"/>
      <point x="174" y="-252"/>
      <point x="193" y="-240"/>
      <point x="193" y="-212" type="curve" smooth="yes"/>
      <point x="193" y="-186"/>
      <point x="174" y="-174"/>
      <point x="151" y="-174" type="curve" smooth="yes"/>
      <point x="128" y="-174"/>
      <point x="110" y="-186"/>
      <point x="110" y="-212" type="curve"/>
      <point x="110" y="-240"/>
      <point x="128" y="-252"/>
    </contour>
    <contour>
      <point x="91" y="-148" type="curve" smooth="yes"/>
      <point x="114" y="-148"/>
      <point x="133" y="-136"/>
      <point x="133" y="-109" type="curve" smooth="yes"/>
      <point x="133" y="-82"/>
      <point x="114" y="-69"/>
      <point x="91" y="-69" type="curve" smooth="yes"/>
      <point x="68" y="-69"/>
      <point x="50" y="-82"/>
      <point x="50" y="-109" type="curve"/>
      <point x="50" y="-136"/>
      <point x="68" y="-148"/>
    </contour>
  </outline>
</glyph>
<glyph name="qamats-hb" format="2">
  <unicode hex="05B8"/>
  <note>
qamats
</note>
  <anchor x="147" y="0" name="_bottom"/>
  <outline>
    <contour>
      <point x="121" y="-240" type="line"/>
      <point x="172" y="-240" type="line"/>
      <point x="172" y="-134" type="line"/>
      <point x="243" y="-134" type="line"/>
      <point x="243" y="-83" type="line"/>
      <point x="50" y="-83" type="line"/>
      <point x="50" y="-134" type="line"/>
      <point x="121" y="-134" type="line"/>
    </contour>
  </outline>
</glyph>
<glyph name="qubuts-hb" format="2">
  <unicode hex="05BB"/>
  <note>
qubuts
</note>
  <anchor x="184" y="0" name="_bottom"/>
  <outline>
    <contour>
      <point x="275" y="-252" type="curve" smooth="yes"/>
      <point x="298" y="-252"/>
      <point x="317" y="-240"/>
      <point x="317" y="-213" type="curve" smooth="yes"/>
      <point x="317" y="-186"/>
      <point x="298" y="-173"/>
      <point x="275" y="-173" type="curve" smooth="yes"/>
      <point x="252" y="-173"/>
      <point x="234" y="-186"/>
      <point x="234" y="-213" type="curve"/>
      <point x="234" y="-240"/>
      <point x="252" y="-252"/>
    </contour>
    <contour>
      <point x="91" y="-148" type="curve" smooth="yes"/>
      <point x="114" y="-148"/>
      <point x="133" y="-136"/>
      <point x="133" y="-109" type="curve" smooth="yes"/>
      <point x="133" y="-82"/>
      <point x="114" y="-69"/>
      <point x="91" y="-69" type="curve" smooth="yes"/>
      <point x="68" y="-69"/>
      <point x="50" y="-82"/>
      <point x="50" y="-109" type="curve"/>
      <point x="50" y="-136"/>
      <point x="68" y="-148"/>
    </contour>
    <contour>
      <point x="183" y="-200" type="curve" smooth="yes"/>
      <point x="206" y="-200"/>
      <point x="225" y="-188"/>
      <point x="225" y="-160" type="curve" smooth="yes"/>
      <point x="225" y="-134"/>
      <point x="206" y="-122"/>
      <point x="183" y="-122" type="curve" smooth="yes"/>
      <point x="160" y="-122"/>
      <point x="142" y="-134"/>
      <point x="142" y="-160" type="curve"/>
      <point x="142" y="-188"/>
      <point x="160" y="-200"/>
    </contour>
  </outline>
</glyph>
<glyph name="dagesh-hb" format="2">
  <unicode hex="05BC"/>
  <note>
dagesh
</note>
  <anchor x="92" y="303" name="_center"/>
  <outline>
    <contour>
      <point x="50" y="303" type="curve"/>
      <point x="50" y="276"/>
      <point x="68" y="263"/>
      <point x="92" y="263" type="curve" smooth="yes"/>
      <point x="115" y="263"/>
      <point x="134" y="276"/>
      <point x="134" y="303" type="curve" smooth="yes"/>
      <point x="134" y="330"/>
      <point x="115" y="343"/>
      <point x="92" y="343" type="curve" smooth="yes"/>
      <point x="68" y="343"/>
      <point x="50" y="330"/>
    </contour>
  </outline>
</glyph>
<glyph name="siluqleft-hb" format="2">
  <unicode hex="05BD"/>
  <note>
meteg
</note>
  <anchor x="76" y="0" name="_bottomleft"/>
  <outline>
    <contour>
      <point x="50" y="-252" type="line"/>
      <point x="101" y="-252" type="line"/>
      <point x="101" y="-69" type="line"/>
      <point x="50" y="-69" type="line"/>
    </contour>
  </outline>
</glyph>
<glyph name="maqaf-hb" format="2">
  <advance width="312"/>
  <unicode hex="05BE"/>
  <outline>
    <contour>
      <point x="20" y="480" type="line"/>
      <point x="282" y="480" type="line"/>
      <point x="282" y="602" type="line"/>
      <point x="20" y="602" type="line"/>
    </contour>
  </outline>
</glyph>
<glyph name="paseq-hb" format="2">
  <advance width="551"/>
  <unicode hex="05C0"/>
  <note>
paseq
</note>
  <outline>
    <contour>
      <point x="222" y="757" type="line"/>
      <point x="222" y="-227" type="line"/>
      <point x="329" y="-227" type="line"/>
      <point x="329" y="757" type="line"/>
    </contour>
  </outline>
</glyph>
<glyph name="sindot-hb" format="2">
  <unicode hex="05C2"/>
  <note>
sindot
</note>
  <anchor x="92" y="546" name="_topleft"/>
  <outline>
    <contour>
      <point x="91" y="662" type="curve" smooth="yes"/>
      <point x="114" y="662"/>
      <point x="133" y="674"/>
      <point x="133" y="701" type="curve" smooth="yes"/>
      <point x="133" y="728"/>
      <point x="114" y="741"/>
      <point x="91" y="741" type="curve" smooth="yes"/>
      <point x="68" y="741"/>
      <point x="50" y="728"/>
      <point x="50" y="701" type="curve" smooth="yes"/>
      <point x="50" y="674"/>
      <point x="68" y="662"/>
    </contour>
  </outline>
</glyph>
<glyph name="upperdot-hb" format="2">
  <unicode hex="05C4"/>
  <note>
upper_dot
</note>
  <anchor x="92" y="546" name="_top"/>
  <outline>
    <contour>
      <point x="91" y="662" type="curve" smooth="yes"/>
      <point x="114" y="662"/>
      <point x="133" y="674"/>
      <point x="133" y="701" type="curve" smooth="yes"/>
      <point x="133" y="728"/>
      <point x="114" y="741"/>
      <point x="91" y="741" type="curve" smooth="yes"/>
      <point x="68" y="741"/>
      <point x="50" y="728"/>
      <point x="50" y="701" type="curve" smooth="yes"/>
      <point x="50" y="674"/>
      <point x="68" y="662"/>
    </contour>
  </outline>
</glyph>
<glyph name="nunhafukha-hb" format="2">
  <advance width="422"/>
  <unicode hex="05C6"/>
  <note>
uni05C6
</note>
  <outline>
    <contour>
      <point x="65" y="0" type="line"/>
      <point x="402" y="0" type="line"/>
      <point x="402" y="127" type="line"/>
      <point x="215" y="127" type="line"/>
      <point x="215" y="425" type="line" smooth="yes"/>
      <point x="215" y="459"/>
      <point x="226" y="476"/>
      <point x="261" y="476" type="curve" smooth="yes"/>
      <point x="369" y="476" type="line"/>
      <point x="369" y="602" type="line"/>
      <point x="217" y="602" type="line" smooth="yes"/>
      <point x="120" y="602"/>
      <point x="65" y="545"/>
      <point x="65" y="444" type="curve" smooth="yes"/>
    </contour>
  </outline>
</glyph>
<glyph name="qamatsqatan-hb" format="2">
  <unicode hex="05C7"/>
  <note>
qamatsqatan
</note>
  <anchor x="127" y="0" name="_bottom"/>
  <outline>
    <contour>
      <point x="101" y="-200" type="line"/>
      <point x="152" y="-200" type="line"/>
      <point x="152" y="-134" type="line"/>
      <point x="203" y="-134" type="line"/>
      <point x="203" y="-83" type="line"/>
      <point x="50" y="-83" type="line"/>
      <point x="50" y="-134" type="line"/>
      <point x="101" y="-134" type="line"/>
    </contour>
  </outline>
</glyph>
<glyph name="alef-hb" format="2">
  <advance width="682"/>
  <unicode hex="05D0"/>
  <anchor x="342" y="0" name="bottom"/>
  <anchor x="130" y="0" name="bottomleft"/>
  <anchor x="288" y="131" name="center"/>
  <anchor x="336" y="546" name="top"/>
  <anchor x="40" y="546" name="topleft"/>
  <outline>
    <contour>
      <point x="470" y="0" type="line"/>
      <point x="642" y="0" type="line"/>
      <point x="456" y="246" type="line"/>
      <point x="212" y="602" type="line"/>
      <point x="40" y="602" type="line"/>
      <point x="210" y="370" type="line"/>
    </contour>
    <contour>
      <point x="64" y="0" type="line"/>
      <point x="214" y="0" type="line"/>
      <point x="214" y="174" type="line" smooth="yes"/>
      <point x="214" y="283"/>
      <point x="251" y="348"/>
      <point x="321" y="348" type="curve"/>
      <point x="276" y="442" type="line"/>
      <point x="135" y="442"/>
      <point x="64" y="319"/>
      <point x="64" y="168" type="curve" smooth="yes"/>
    </contour>
    <contour>
      <point x="405" y="175" type="line"/>
      <point x="542" y="175"/>
      <point x="610" y="298"/>
      <point x="610" y="446" type="curve" smooth="yes"/>
      <point x="610" y="602" type="line"/>
      <point x="460" y="602" type="line"/>
      <point x="460" y="440" type="line" smooth="yes"/>
      <point x="460" y="332"/>
      <point x="431" y="267"/>
      <point x="355" y="267" type="curve"/>
    </contour>
  </outline>
</glyph>
<glyph name="bet-hb" format="2">
  <advance width="592"/>
  <unicode hex="05D1"/>
  <anchor x="299" y="0" name="bottom"/>
  <anchor x="5" y="0" name="bottomleft"/>
  <anchor x="185" y="303" name="center"/>
  <anchor x="213" y="546" name="top"/>
  <anchor x="25" y="546" name="topleft"/>
  <outline>
    <contour>
      <point x="344" y="0" type="line"/>
      <point x="494" y="0" type="line"/>
      <point x="494" y="391" type="line" smooth="yes"/>
      <point x="494" y="533"/>
      <point x="418" y="602"/>
      <point x="263" y="602" type="curve" smooth="yes"/>
      <point x="25" y="602" type="line"/>
      <point x="25" y="476" type="line"/>
      <point x="257" y="476" type="line" smooth="yes"/>
      <point x="319" y="476"/>
      <point x="344" y="449"/>
      <point x="344" y="374" type="curve" smooth="yes"/>
    </contour>
    <contour>
      <point x="25" y="0" type="line"/>
      <point x="572" y="0" type="line"/>
      <point x="572" y="126" type="line"/>
      <point x="25" y="126" type="line"/>
    </contour>
  </outline>
</glyph>
<glyph name="gimel-hb" format="2">
  <advance width="400"/>
  <unicode hex="05D2"/>
  <anchor x="193" y="0" name="bottom"/>
  <anchor x="10" y="0" name="bottomleft"/>
  <anchor x="106" y="332" name="center"/>
  <anchor x="200" y="546" name="top"/>
  <anchor x="48" y="546" name="topleft"/>
  <outline>
    <contour>
      <point x="10" y="-10" type="line"/>
      <point x="89" y="13"/>
      <point x="159" y="64"/>
      <point x="210" y="129" type="curve"/>
      <point x="214" y="129" type="line"/>
      <point x="242" y="0" type="line"/>
      <point x="375" y="0" type="line"/>
      <point x="351" y="202" type="line"/>
      <point x="351" y="444" type="line" smooth="yes"/>
      <point x="351" y="542"/>
      <point x="302" y="602"/>
      <point x="200" y="602" type="curve" smooth="yes"/>
      <point x="48" y="602" type="line"/>
      <point x="48" y="476" type="line"/>
      <point x="156" y="476" type="line" smooth="yes"/>
      <point x="190" y="476"/>
      <point x="202" y="459"/>
      <point x="202" y="425" type="curve" smooth="yes"/>
      <point x="202" y="332" type="line" smooth="yes"/>
      <point x="202" y="283"/>
      <point x="179" y="235"/>
      <point x="142" y="196" type="curve" smooth="yes"/>
      <point x="109" y="161"/>
      <point x="63" y="134"/>
      <point x="10" y="123" type="curve"/>
    </contour>
  </outline>
</glyph>
<glyph name="dalet-hb" format="2">
  <advance width="578"/>
  <unicode hex="05D3"/>
  <anchor x="392" y="0" name="bottom"/>
  <anchor x="0" y="0" name="bottomleft"/>
  <anchor x="164" y="303" name="center"/>
  <anchor x="284" y="546" name="top"/>
  <anchor x="11" y="546" name="topleft"/>
  <outline>
    <contour>
      <point x="317" y="0" type="line"/>
      <point x="467" y="0" type="line"/>
      <point x="467" y="554" type="line"/>
      <point x="317" y="554" type="line"/>
    </contour>
    <contour>
      <point x="10" y="476" type="line"/>
      <point x="558" y="476" type="line"/>
      <point x="558" y="602" type="line"/>
      <point x="10" y="602" type="line"/>
    </contour>
  </outline>
</glyph>
<glyph name="he-hb" format="2">
  <advance width="702"/>
  <unicode hex="05D4"/>
  <anchor x="354" y="0" name="bottom"/>
  <anchor x="80" y="0" name="bottomleft"/>
  <anchor x="354" y="303" name="center"/>
  <anchor x="354" y="546" name="top"/>
  <anchor x="80" y="546" name="topleft"/>
  <outline>
    <contour>
      <point x="477" y="0" type="line"/>
      <point x="627" y="0" type="line"/>
      <point x="627" y="391" type="line" smooth="yes"/>
      <point x="627" y="533"/>
      <point x="551" y="602"/>
      <point x="396" y="602" type="curve" smooth="yes"/>
      <point x="80" y="602" type="line"/>
      <point x="80" y="476" type="line"/>
      <point x="390" y="476" type="line" smooth="yes"/>
      <point x="452" y="476"/>
      <point x="477" y="449"/>
      <point x="477" y="374" type="curve" smooth="yes"/>
    </contour>
    <contour>
      <point x="80" y="0" type="line"/>
      <point x="230" y="0" type="line"/>
      <point x="230" y="350" type="line"/>
      <point x="80" y="350" type="line"/>
    </contour>
  </outline>
</glyph>
<glyph name="vav-hb" format="2">
  <advance width="310"/>
  <unicode hex="05D5"/>
  <anchor x="155" y="0" name="bottom"/>
  <anchor x="-26" y="0" name="bottomleft"/>
  <anchor x="10" y="303" name="center"/>
  <anchor x="155" y="546" name="top"/>
  <anchor x="155" y="546" name="topleft"/>
  <outline>
    <contour>
      <point x="80" y="0" type="line"/>
      <point x="230" y="0" type="line"/>
      <point x="230" y="602" type="line"/>
      <point x="80" y="602" type="line"/>
    </contour>
  </outline>
</glyph>
<glyph name="zayin-hb" format="2">
  <advance width="350"/>
  <unicode hex="05D6"/>
  <anchor x="169" y="0" name="bottom"/>
  <anchor x="10" y="0" name="bottomleft"/>
  <anchor x="10" y="303" name="center"/>
  <anchor x="175" y="546" name="top"/>
  <anchor x="21" y="546" name="topleft"/>
  <outline>
    <contour>
      <point x="94" y="0" type="line"/>
      <point x="244" y="0" type="line"/>
      <point x="244" y="348" type="line" smooth="yes"/>
      <point x="244" y="445"/>
      <point x="298" y="478"/>
      <point x="330" y="504" type="curve"/>
      <point x="330" y="602" type="line"/>
      <point x="20" y="602" type="line"/>
      <point x="20" y="476" type="line"/>
      <point x="170" y="476" type="line"/>
      <point x="170" y="473" type="line"/>
      <point x="119" y="434"/>
      <point x="94" y="379"/>
      <point x="94" y="307" type="curve" smooth="yes"/>
    </contour>
  </outline>
</glyph>
<glyph name="het-hb" format="2">
  <advance width="722"/>
  <unicode hex="05D7"/>
  <anchor x="364" y="0" name="bottom"/>
  <anchor x="10" y="0" name="bottomleft"/>
  <anchor x="364" y="303" name="center"/>
  <anchor x="364" y="546" name="top"/>
  <anchor x="80" y="546" name="topleft"/>
  <outline>
    <contour>
      <point x="416" y="602" type="curve" smooth="yes"/>
      <point x="80" y="602" type="line"/>
      <point x="80" y="0" type="line"/>
      <point x="230" y="0" type="line"/>
      <point x="230" y="476" type="line"/>
      <point x="410" y="476" type="line" smooth="yes"/>
      <point x="472" y="476"/>
      <point x="497" y="449"/>
      <point x="497" y="374" type="curve" smooth="yes"/>
      <point x="497" y="0" type="line"/>
      <point x="647" y="0" type="line"/>
      <point x="647" y="391" type="line" smooth="yes"/>
      <point x="647" y="533"/>
      <point x="571" y="602"/>
    </contour>
  </outline>
</glyph>
<glyph name="tet-hb" format="2">
  <advance width="724"/>
  <unicode hex="05D8"/>
  <anchor x="372" y="0" name="bottom"/>
  <anchor x="20" y="0" name="bottomleft"/>
  <anchor x="372" y="303" name="center"/>
  <anchor x="372" y="546" name="top"/>
  <anchor x="70" y="546" name="topleft"/>
  <outline>
    <contour>
      <point x="375" y="-12" type="curve" smooth="yes"/>
      <point x="567" y="-12"/>
      <point x="679" y="74"/>
      <point x="679" y="328" type="curve" smooth="yes"/>
      <point x="679" y="457"/>
      <point x="650" y="612"/>
      <point x="464" y="612" type="curve" smooth="yes"/>
      <point x="402" y="612"/>
      <point x="349" y="596"/>
      <point x="314" y="585" type="curve"/>
      <point x="314" y="459" type="line"/>
      <point x="353" y="475"/>
      <point x="391" y="484"/>
      <point x="435" y="484" type="curve" smooth="yes"/>
      <point x="491" y="484"/>
      <point x="524" y="446"/>
      <point x="524" y="319" type="curve" smooth="yes"/>
      <point x="524" y="180"/>
      <point x="491" y="110"/>
      <point x="376" y="110" type="curve" smooth="yes"/>
      <point x="272" y="110"/>
      <point x="220" y="177"/>
      <point x="220" y="319" type="curve" smooth="yes"/>
      <point x="220" y="602" type="line"/>
      <point x="70" y="602" type="line"/>
      <point x="70" y="319" type="line" smooth="yes"/>
      <point x="70" y="98"/>
      <point x="171" y="-12"/>
    </contour>
  </outline>
</glyph>
<glyph name="yod-hb" format="2">
  <advance width="285"/>
  <unicode hex="05D9"/>
  <anchor x="145" y="0" name="bottom"/>
  <anchor x="0" y="0" name="bottomleft"/>
  <anchor x="0" y="421" name="center"/>
  <anchor x="145" y="546" name="top"/>
  <anchor x="70" y="546" name="topleft"/>
  <outline>
    <contour>
      <point x="70" y="213" type="line"/>
      <point x="145" y="213" type="line"/>
      <point x="220" y="332" type="line"/>
      <point x="220" y="602" type="line"/>
      <point x="70" y="602" type="line"/>
    </contour>
  </outline>
</glyph>
<glyph name="finalkaf-hb" format="2">
  <advance width="595"/>
  <unicode hex="05DA"/>
  <anchor x="193" y="240" name="bottom"/>
  <anchor x="-5" y="0" name="bottomleft"/>
  <anchor x="193" y="303" name="center"/>
  <anchor x="193" y="546" name="top"/>
  <anchor x="9" y="546" name="topleft"/>
  <outline>
    <contour>
      <point x="376" y="-240" type="line"/>
      <point x="530" y="-240" type="line"/>
      <point x="530" y="277" type="line" smooth="yes"/>
      <point x="530" y="491"/>
      <point x="413" y="602"/>
      <point x="187" y="602" type="curve" smooth="yes"/>
      <point x="10" y="602" type="line"/>
      <point x="10" y="475" type="line"/>
      <point x="175" y="475" type="line" smooth="yes"/>
      <point x="319" y="475"/>
      <point x="376" y="420"/>
      <point x="376" y="277" type="curve" smooth="yes"/>
    </contour>
  </outline>
</glyph>
<glyph name="kaf-hb" format="2">
  <advance width="590"/>
  <unicode hex="05DB"/>
  <anchor x="240" y="0" name="bottom"/>
  <anchor x="48" y="0" name="bottomleft"/>
  <anchor x="209" y="303" name="center"/>
  <anchor x="209" y="546" name="top"/>
  <anchor x="25" y="546" name="topleft"/>
  <outline>
    <contour>
      <point x="25" y="0" type="line"/>
      <point x="232" y="0" type="line" smooth="yes"/>
      <point x="428" y="0"/>
      <point x="545" y="104"/>
      <point x="545" y="299" type="curve" smooth="yes"/>
      <point x="545" y="486"/>
      <point x="425" y="602"/>
      <point x="232" y="602" type="curve" smooth="yes"/>
      <point x="25" y="602" type="line"/>
      <point x="25" y="476" type="line"/>
      <point x="222" y="476" type="line" smooth="yes"/>
      <point x="326" y="476"/>
      <point x="392" y="418"/>
      <point x="392" y="296" type="curve" smooth="yes"/>
      <point x="392" y="171"/>
      <point x="326" y="126"/>
      <point x="222" y="126" type="curve" smooth="yes"/>
      <point x="25" y="126" type="line"/>
    </contour>
  </outline>
</glyph>
<glyph name="lamed-hb" format="2">
  <advance width="565"/>
  <unicode hex="05DC"/>
  <anchor x="263" y="0" name="bottom"/>
  <anchor x="246" y="0" name="bottomleft"/>
  <anchor x="156" y="303" name="center"/>
  <anchor x="350" y="546" name="top"/>
  <anchor x="-44" y="546" name="topleft"/>
  <outline>
    <contour>
      <point x="165" y="602" type="line"/>
      <point x="165" y="760" type="line"/>
      <point x="15" y="760" type="line"/>
      <point x="15" y="476" type="line"/>
      <point x="372" y="476" type="line"/>
      <point x="184" y="0" type="line"/>
      <point x="341" y="0" type="line"/>
      <point x="535" y="510" type="line"/>
      <point x="535" y="602" type="line"/>
    </contour>
  </outline>
</glyph>
<glyph name="finalmem-hb" format="2">
  <advance width="702"/>
  <unicode hex="05DD"/>
  <anchor x="346" y="0" name="bottom"/>
  <anchor x="24" y="0" name="bottomleft"/>
  <anchor x="346" y="301" name="center"/>
  <anchor x="346" y="546" name="top"/>
  <anchor x="64" y="546" name="topleft"/>
  <outline>
    <contour>
      <point x="65" y="0" type="line"/>
      <point x="627" y="0" type="line"/>
      <point x="627" y="391" type="line" smooth="yes"/>
      <point x="627" y="533"/>
      <point x="551" y="602"/>
      <point x="396" y="602" type="curve" smooth="yes"/>
      <point x="65" y="602" type="line"/>
    </contour>
    <contour>
      <point x="215" y="126" type="line"/>
      <point x="215" y="476" type="line"/>
      <point x="390" y="476" type="line" smooth="yes"/>
      <point x="452" y="476"/>
      <point x="477" y="448"/>
      <point x="477" y="374" type="curve" smooth="yes"/>
      <point x="477" y="126" type="line"/>
    </contour>
  </outline>
</glyph>
<glyph name="mem-hb" format="2">
  <advance width="698"/>
  <unicode hex="05DE"/>
  <anchor x="334" y="0" name="bottom"/>
  <anchor x="120" y="0" name="bottomleft"/>
  <anchor x="353" y="303" name="center"/>
  <anchor x="353" y="546" name="top"/>
  <anchor x="45" y="546" name="topleft"/>
  <outline>
    <contour>
      <point x="408" y="612" type="curve" smooth="yes"/>
      <point x="297" y="612"/>
      <point x="249" y="546"/>
      <point x="219" y="504" type="curve"/>
      <point x="215" y="504" type="line"/>
      <point x="197" y="602" type="line"/>
      <point x="47" y="602" type="line"/>
      <point x="92" y="385" type="line"/>
      <point x="45" y="0" type="line"/>
      <point x="195" y="0" type="line"/>
      <point x="232" y="301" type="line" smooth="yes"/>
      <point x="247" y="422"/>
      <point x="291" y="479"/>
      <point x="372" y="479" type="curve" smooth="yes"/>
      <point x="439" y="479"/>
      <point x="473" y="440"/>
      <point x="473" y="363" type="curve" smooth="yes"/>
      <point x="473" y="126" type="line"/>
      <point x="303" y="126" type="line"/>
      <point x="303" y="0" type="line"/>
      <point x="623" y="0" type="line"/>
      <point x="623" y="377" type="line" smooth="yes"/>
      <point x="623" y="520"/>
      <point x="539" y="612"/>
    </contour>
  </outline>
</glyph>
<glyph name="finalnun-hb" format="2">
  <advance width="344"/>
  <unicode hex="05DF"/>
  <anchor x="10" y="0" name="bottomleft"/>
  <anchor x="60" y="303" name="center"/>
  <anchor x="142" y="546" name="top"/>
  <anchor x="15" y="546" name="topleft"/>
  <outline>
    <contour>
      <point x="119" y="-240" type="line"/>
      <point x="269" y="-240" type="line"/>
      <point x="269" y="444" type="line" smooth="yes"/>
      <point x="269" y="545"/>
      <point x="214" y="602"/>
      <point x="117" y="602" type="curve" smooth="yes"/>
      <point x="15" y="602" type="line"/>
      <point x="15" y="476" type="line"/>
      <point x="73" y="476" type="line" smooth="yes"/>
      <point x="108" y="476"/>
      <point x="119" y="459"/>
      <point x="119" y="425" type="curve" smooth="yes"/>
    </contour>
  </outline>
</glyph>
<glyph name="nun-hb" format="2">
  <advance width="437"/>
  <unicode hex="05E0"/>
  <anchor x="204" y="0" name="bottom"/>
  <anchor x="5" y="0" name="bottomleft"/>
  <anchor x="119" y="303" name="center"/>
  <anchor x="210" y="546" name="top"/>
  <anchor x="58" y="546" name="topleft"/>
  <outline>
    <contour>
      <point x="25" y="0" type="line"/>
      <point x="362" y="0" type="line"/>
      <point x="362" y="444" type="line" smooth="yes"/>
      <point x="362" y="545"/>
      <point x="307" y="602"/>
      <point x="210" y="602" type="curve" smooth="yes"/>
      <point x="58" y="602" type="line"/>
      <point x="58" y="476" type="line"/>
      <point x="166" y="476" type="line" smooth="yes"/>
      <point x="201" y="476"/>
      <point x="212" y="459"/>
      <point x="212" y="425" type="curve" smooth="yes"/>
      <point x="212" y="127" type="line"/>
      <point x="25" y="127" type="line"/>
    </contour>
  </outline>
</glyph>
<glyph name="samekh-hb" format="2">
  <advance width="731"/>
  <unicode hex="05E1"/>
  <anchor x="376" y="0" name="bottom"/>
  <anchor x="5" y="0" name="bottomleft"/>
  <anchor x="380" y="303" name="center"/>
  <anchor x="380" y="546" name="top"/>
  <anchor x="30" y="546" name="topleft"/>
  <outline>
    <contour>
      <point x="380" y="-13" type="curve" smooth="yes"/>
      <point x="569" y="-13"/>
      <point x="686" y="107"/>
      <point x="686" y="298" type="curve" smooth="yes"/>
      <point x="686" y="488"/>
      <point x="570" y="602"/>
      <point x="376" y="602" type="curve" smooth="yes"/>
      <point x="30" y="602" type="line"/>
      <point x="30" y="476" type="line"/>
      <point x="97" y="476" type="line"/>
      <point x="85" y="425"/>
      <point x="74" y="364"/>
      <point x="74" y="305" type="curve" smooth="yes"/>
      <point x="74" y="108"/>
      <point x="191" y="-13"/>
    </contour>
    <contour>
      <point x="376" y="108" type="curve" smooth="yes"/>
      <point x="274" y="108"/>
      <point x="227" y="170"/>
      <point x="227" y="312" type="curve" smooth="yes"/>
      <point x="227" y="386"/>
      <point x="240" y="443"/>
      <point x="249" y="476" type="curve"/>
      <point x="360" y="476" type="line" smooth="yes"/>
      <point x="481" y="476"/>
      <point x="533" y="425"/>
      <point x="533" y="299" type="curve" smooth="yes"/>
      <point x="533" y="172"/>
      <point x="480" y="108"/>
    </contour>
  </outline>
</glyph>
<glyph name="ayin-hb" format="2">
  <advance width="655"/>
  <unicode hex="05E2"/>
  <anchor x="287" y="0" name="bottom"/>
  <anchor x="15" y="0" name="bottomleft"/>
  <anchor x="359" y="396" name="center"/>
  <anchor x="342" y="546" name="top"/>
  <anchor x="56" y="546" name="topleft"/>
  <outline>
    <contour>
      <point x="15" y="0" type="line"/>
      <point x="226" y="0" type="line" smooth="yes"/>
      <point x="538" y="0"/>
      <point x="592" y="225"/>
      <point x="607" y="375" type="curve" smooth="yes"/>
      <point x="630" y="602" type="line"/>
      <point x="480" y="602" type="line"/>
      <point x="456" y="379" type="line" smooth="yes"/>
      <point x="441" y="198"/>
      <point x="374" y="126"/>
      <point x="226" y="126" type="curve" smooth="yes"/>
      <point x="15" y="126" type="line"/>
    </contour>
    <contour>
      <point x="186" y="67" type="line"/>
      <point x="334" y="67" type="line"/>
      <point x="204" y="602" type="line"/>
      <point x="54" y="602" type="line"/>
    </contour>
  </outline>
</glyph>
<glyph name="finalpe-hb" format="2">
  <advance width="633"/>
  <unicode hex="05E3"/>
  <anchor x="-5" y="0" name="bottomleft"/>
  <anchor x="336" y="282" name="center"/>
  <anchor x="287" y="546" name="top"/>
  <anchor x="5" y="546" name="topleft"/>
  <outline>
    <contour>
      <point x="418" y="-240" type="line"/>
      <point x="568" y="-240" type="line"/>
      <point x="568" y="287" type="line" smooth="yes"/>
      <point x="568" y="481"/>
      <point x="448" y="602"/>
      <point x="255" y="602" type="curve" smooth="yes"/>
      <point x="5" y="602" type="line"/>
      <point x="5" y="475" type="line"/>
      <point x="245" y="475" type="line" smooth="yes"/>
      <point x="361" y="475"/>
      <point x="418" y="413"/>
      <point x="418" y="284" type="curve" smooth="yes"/>
    </contour>
    <contour>
      <point x="208" y="216" type="curve" smooth="yes"/>
      <point x="223" y="216"/>
      <point x="242" y="217"/>
      <point x="257" y="219" type="curve"/>
      <point x="257" y="345" type="line"/>
      <point x="248" y="344"/>
      <point x="235" y="343"/>
      <point x="225" y="343" type="curve" smooth="yes"/>
      <point x="180" y="343"/>
      <point x="155" y="363"/>
      <point x="155" y="437" type="curve" smooth="yes"/>
      <point x="155" y="602" type="line"/>
      <point x="5" y="602" type="line"/>
      <point x="5" y="429" type="line" smooth="yes"/>
      <point x="5" y="293"/>
      <point x="78" y="216"/>
    </contour>
  </outline>
</glyph>
<glyph name="pe-hb" format="2">
  <advance width="653"/>
  <unicode hex="05E4"/>
  <anchor x="295" y="0" name="bottom"/>
  <anchor x="45" y="0" name="bottomleft"/>
  <anchor x="376" y="282" name="center"/>
  <anchor x="286" y="546" name="top"/>
  <anchor x="45" y="546" name="topleft"/>
  <outline>
    <contour>
      <point x="45" y="0" type="line"/>
      <point x="310" y="0" type="line" smooth="yes"/>
      <point x="491" y="0"/>
      <point x="608" y="106"/>
      <point x="608" y="296" type="curve" smooth="yes"/>
      <point x="608" y="488"/>
      <point x="488" y="602"/>
      <point x="295" y="602" type="curve" smooth="yes"/>
      <point x="115" y="602" type="line"/>
      <point x="115" y="476" type="line"/>
      <point x="285" y="476" type="line" smooth="yes"/>
      <point x="400" y="476"/>
      <point x="455" y="418"/>
      <point x="455" y="293" type="curve" smooth="yes"/>
      <point x="455" y="171"/>
      <point x="403" y="126"/>
      <point x="310" y="126" type="curve" smooth="yes"/>
      <point x="45" y="126" type="line"/>
    </contour>
    <contour>
      <point x="248" y="216" type="curve" smooth="yes"/>
      <point x="263" y="216"/>
      <point x="282" y="217"/>
      <point x="297" y="219" type="curve"/>
      <point x="297" y="345" type="line"/>
      <point x="288" y="344"/>
      <point x="278" y="343"/>
      <point x="267" y="343" type="curve" smooth="yes"/>
      <point x="224" y="343"/>
      <point x="195" y="357"/>
      <point x="195" y="437" type="curve" smooth="yes"/>
      <point x="195" y="602" type="line"/>
      <point x="45" y="602" type="line"/>
      <point x="45" y="429" type="line" smooth="yes"/>
      <point x="45" y="293"/>
      <point x="118" y="216"/>
    </contour>
  </outline>
</glyph>
<glyph name="finaltsadi-hb" format="2">
  <advance width="543"/>
  <unicode hex="05E5"/>
  <anchor x="-2" y="0" name="bottomleft"/>
  <anchor x="295" y="447" name="center"/>
  <anchor x="274" y="546" name="top"/>
  <anchor x="7" y="546" name="topleft"/>
  <outline>
    <contour>
      <point x="143" y="-240" type="line"/>
      <point x="293" y="-240" type="line"/>
      <point x="293" y="220" type="line"/>
      <point x="160" y="602" type="line"/>
      <point x="3" y="602" type="line"/>
      <point x="143" y="224" type="line"/>
    </contour>
    <contour>
      <point x="207" y="121" type="line"/>
      <point x="333" y="159" type="line" smooth="yes"/>
      <point x="491" y="207"/>
      <point x="509" y="286"/>
      <point x="520" y="406" type="curve" smooth="yes"/>
      <point x="538" y="602" type="line"/>
      <point x="388" y="602" type="line"/>
      <point x="368" y="392" type="line" smooth="yes"/>
      <point x="362" y="325"/>
      <point x="343" y="294"/>
      <point x="302" y="281" type="curve" smooth="yes"/>
      <point x="196" y="248" type="line"/>
    </contour>
  </outline>
</glyph>
<glyph name="tsadi-hb" format="2">
  <advance width="621"/>
  <unicode hex="05E6"/>
  <anchor x="290" y="0" name="bottom"/>
  <anchor x="32" y="0" name="bottomleft"/>
  <anchor x="95" y="273" name="center"/>
  <anchor x="310" y="546" name="top"/>
  <anchor x="25" y="546" name="topleft"/>
  <outline>
    <contour>
      <point x="449" y="8" type="line"/>
      <point x="548" y="96" type="line"/>
      <point x="418" y="276" type="line"/>
      <point x="193" y="602" type="line"/>
      <point x="20" y="602" type="line"/>
    </contour>
    <contour>
      <point x="32" y="0" type="line"/>
      <point x="548" y="0" type="line"/>
      <point x="548" y="96" type="line"/>
      <point x="510" y="127" type="line"/>
      <point x="32" y="127" type="line"/>
    </contour>
    <contour>
      <point x="371" y="196" type="line"/>
      <point x="471" y="196"/>
      <point x="576" y="304"/>
      <point x="576" y="482" type="curve" smooth="yes"/>
      <point x="576" y="602" type="line"/>
      <point x="426" y="602" type="line"/>
      <point x="426" y="476" type="line" smooth="yes"/>
      <point x="426" y="366"/>
      <point x="397" y="300"/>
      <point x="321" y="300" type="curve"/>
    </contour>
  </outline>
</glyph>
<glyph name="qof-hb" format="2">
  <advance width="680"/>
  <unicode hex="05E7"/>
  <anchor x="386" y="0" name="bottom"/>
  <anchor x="35" y="0" name="bottomleft"/>
  <anchor x="311" y="303" name="center"/>
  <anchor x="363" y="546" name="top"/>
  <anchor x="76" y="546" name="topleft"/>
  <outline>
    <contour>
      <point x="299" y="0" type="line"/>
      <point x="456" y="0" type="line"/>
      <point x="650" y="509" type="line"/>
      <point x="650" y="602" type="line"/>
      <point x="75" y="602" type="line"/>
      <point x="75" y="476" type="line"/>
      <point x="487" y="476" type="line"/>
    </contour>
    <contour>
      <point x="75" y="-240" type="line"/>
      <point x="225" y="-240" type="line"/>
      <point x="225" y="372" type="line"/>
      <point x="75" y="372" type="line"/>
    </contour>
  </outline>
</glyph>
<glyph name="resh-hb" format="2">
  <advance width="592"/>
  <unicode hex="05E8"/>
  <anchor x="442" y="0" name="bottom"/>
  <anchor x="0" y="0" name="bottomleft"/>
  <anchor x="189" y="303" name="center"/>
  <anchor x="264" y="546" name="top"/>
  <anchor x="10" y="546" name="topleft"/>
  <outline>
    <contour>
      <point x="367" y="0" type="line"/>
      <point x="517" y="0" type="line"/>
      <point x="517" y="391" type="line" smooth="yes"/>
      <point x="517" y="533"/>
      <point x="441" y="602"/>
      <point x="286" y="602" type="curve" smooth="yes"/>
      <point x="10" y="602" type="line"/>
      <point x="10" y="476" type="line"/>
      <point x="280" y="476" type="line" smooth="yes"/>
      <point x="342" y="476"/>
      <point x="367" y="449"/>
      <point x="367" y="374" type="curve" smooth="yes"/>
    </contour>
  </outline>
</glyph>
<glyph name="shin-hb" format="2">
  <advance width="757"/>
  <unicode hex="05E9"/>
  <anchor x="365" y="0" name="bottom"/>
  <anchor x="91" y="0" name="bottomleft"/>
  <anchor x="433" y="235" name="center"/>
  <anchor x="401" y="546" name="top"/>
  <anchor x="110" y="546" name="topleft"/>
  <anchor x="657" y="546" name="topright"/>
  <outline>
    <contour>
      <point x="91" y="0" type="line"/>
      <point x="328" y="0" type="line" smooth="yes"/>
      <point x="547" y="0"/>
      <point x="687" y="139"/>
      <point x="710" y="375" type="curve" smooth="yes"/>
      <point x="732" y="602" type="line"/>
      <point x="582" y="602" type="line"/>
      <point x="559" y="379" type="line" smooth="yes"/>
      <point x="542" y="211"/>
      <point x="459" y="126"/>
      <point x="328" y="126" type="curve" smooth="yes"/>
      <point x="230" y="126" type="line"/>
      <point x="185" y="602" type="line"/>
      <point x="35" y="602" type="line"/>
    </contour>
    <contour>
      <point x="149" y="192" type="line"/>
      <point x="275" y="230" type="line" smooth="yes"/>
      <point x="434" y="278"/>
      <point x="451" y="361"/>
      <point x="463" y="477" type="curve" smooth="yes"/>
      <point x="476" y="602" type="line"/>
      <point x="326" y="602" type="line"/>
      <point x="310" y="463" type="line" smooth="yes"/>
      <point x="301" y="389"/>
      <point x="288" y="355"/>
      <point x="244" y="341" type="curve" smooth="yes"/>
      <point x="138" y="308" type="line"/>
    </contour>
  </outline>
</glyph>
<glyph name="tav-hb" format="2">
  <advance width="717"/>
  <unicode hex="05EA"/>
  <anchor x="387" y="0" name="bottom"/>
  <anchor x="5" y="0" name="bottomleft"/>
  <anchor x="387" y="303" name="center"/>
  <anchor x="359" y="546" name="top"/>
  <anchor x="33" y="546" name="topleft"/>
  <outline>
    <contour>
      <point x="492" y="0" type="line"/>
      <point x="642" y="0" type="line"/>
      <point x="642" y="391" type="line" smooth="yes"/>
      <point x="642" y="533"/>
      <point x="566" y="602"/>
      <point x="411" y="602" type="curve" smooth="yes"/>
      <point x="34" y="602" type="line"/>
      <point x="34" y="476" type="line"/>
      <point x="405" y="476" type="line" smooth="yes"/>
      <point x="467" y="476"/>
      <point x="492" y="449"/>
      <point x="492" y="374" type="curve" smooth="yes"/>
    </contour>
    <contour>
      <point x="30" y="0" type="line"/>
      <point x="121" y="0" type="line" smooth="yes"/>
      <point x="230" y="0"/>
      <point x="281" y="60"/>
      <point x="281" y="182" type="curve" smooth="yes"/>
      <point x="281" y="558" type="line"/>
      <point x="131" y="558" type="line"/>
      <point x="131" y="165" type="line" smooth="yes"/>
      <point x="131" y="139"/>
      <point x="117" y="126"/>
      <point x="97" y="126" type="curve" smooth="yes"/>
      <point x="30" y="126" type="line"/>
    </contour>
  </outline>
</glyph>
<glyph name="vavvav-hb" format="2">
  <advance width="580"/>
  <unicode hex="05F0"/>
  <note>
vavvav
</note>
  <anchor x="145" y="0" name="bottom"/>
  <anchor x="0" y="0" name="bottomleft"/>
  <anchor x="280" y="0" name="caret_1"/>
  <anchor x="-14" y="303" name="center"/>
  <anchor x="145" y="546" name="top"/>
  <anchor x="103" y="546" name="topleft"/>
  <outline>
    <contour>
      <point x="360" y="0" type="line"/>
      <point x="510" y="0" type="line"/>
      <point x="510" y="602" type="line"/>
      <point x="360" y="602" type="line"/>
    </contour>
    <contour>
      <point x="70" y="0" type="line"/>
      <point x="220" y="0" type="line"/>
      <point x="220" y="602" type="line"/>
      <point x="70" y="602" type="line"/>
    </contour>
  </outline>
</glyph>
<glyph name="geresh-hb" format="2">
  <advance width="217"/>
  <unicode hex="05F3"/>
  <outline>
    <contour>
      <point x="12" y="357" type="curve"/>
      <point x="119" y="357" type="line"/>
      <point x="152" y="430"/>
      <point x="187" y="520"/>
      <point x="205" y="591" type="curve"/>
      <point x="198" y="602" type="line"/>
      <point x="61" y="602" type="line"/>
      <point x="51" y="533"/>
      <point x="31" y="436"/>
    </contour>
  </outline>
</glyph>
<glyph name="gershayim-hb" format="2">
  <advance width="445"/>
  <unicode hex="05F4"/>
  <outline>
    <contour>
      <point x="240" y="357" type="curve"/>
      <point x="347" y="357" type="line"/>
      <point x="380" y="430"/>
      <point x="415" y="520"/>
      <point x="433" y="591" type="curve"/>
      <point x="426" y="602" type="line"/>
      <point x="289" y="602" type="line"/>
      <point x="279" y="533"/>
      <point x="259" y="436"/>
    </contour>
    <contour>
      <point x="12" y="357" type="curve"/>
      <point x="119" y="357" type="line"/>
      <point x="152" y="430"/>
      <point x="187" y="520"/>
      <point x="205" y="591" type="curve"/>
      <point x="198" y="602" type="line"/>
      <point x="61" y="602" type="line"/>
      <point x="51" y="533"/>
      <point x="31" y="436"/>
    </contour>
  </outline>
</glyph>
<glyph name="sheqel" format="2">
  <advance width="879"/>
  <unicode hex="20AA"/>
  <note>
sheqel
</note>
  <outline>
    <contour>
      <point x="288" y="0" type="line"/>
      <point x="467" y="0" type="line" smooth="yes"/>
      <point x="719" y="0"/>
      <point x="804" y="84"/>
      <point x="804" y="329" type="curve" smooth="yes"/>
      <point x="804" y="602" type="line"/>
      <point x="654" y="602" type="line"/>
      <point x="654" y="329" type="line" smooth="yes"/>
      <point x="654" y="154"/>
      <point x="629" y="127"/>
      <point x="467" y="127" type="curve" smooth="yes"/>
      <point x="408" y="127" type="line"/>
      <point x="408" y="398" type="line"/>
      <point x="288" y="398" type="line"/>
    </contour>
    <contour>
      <point x="80" y="0" type="line"/>
      <point x="230" y="0" type="line"/>
      <point x="230" y="475" type="line"/>
      <point x="379" y="475" type="line" smooth="yes"/>
      <point x="421" y="475"/>
      <point x="466" y="453"/>
      <point x="466" y="373" type="curve" smooth="yes"/>
      <point x="466" y="204" type="line"/>
      <point x="586" y="204" type="line"/>
      <point x="586" y="391" type="line" smooth="yes"/>
      <point x="586" y="533"/>
      <point x="511" y="602"/>
      <point x="355" y="602" type="curve" smooth="yes"/>
      <point x="80" y="602" type="line"/>
    </contour>
  </outline>
</glyph>
<glyph name="judeospanishvarika-hb" format="2">
  <unicode hex="FB1E"/>
  <note>
uniFB1E
</note>
  <anchor x="155" y="546" name="_top"/>
  <outline>
    <contour>
      <point x="261" y="767" type="curve"/>
      <point x="210" y="767" type="line"/>
      <point x="210" y="731"/>
      <point x="190" y="711"/>
      <point x="155" y="711" type="curve" smooth="yes"/>
      <point x="120" y="711"/>
      <point x="100" y="735"/>
      <point x="100" y="767" type="curve"/>
      <point x="50" y="767" type="line"/>
      <point x="50" y="702"/>
      <point x="89" y="658"/>
      <point x="155" y="658" type="curve" smooth="yes"/>
      <point x="222" y="658"/>
      <point x="261" y="702"/>
    </contour>
  </outline>
</glyph>
<glyph name="ayinaltone-hb" format="2">
  <advance width="620"/>
  <unicode hex="FB20"/>
  <note>
alternativeayin
</note>
  <anchor x="296" y="0" name="bottom"/>
  <anchor x="10" y="0" name="bottomleft"/>
  <anchor x="322" y="546" name="top"/>
  <anchor x="49" y="546" name="topleft"/>
  <outline>
    <contour>
      <point x="10" y="-67" type="line"/>
      <point x="364" y="62" type="line" smooth="yes"/>
      <point x="517" y="118"/>
      <point x="553" y="190"/>
      <point x="572" y="375" type="curve" smooth="yes"/>
      <point x="595" y="602" type="line"/>
      <point x="445" y="602" type="line"/>
      <point x="422" y="378" type="line" smooth="yes"/>
      <point x="407" y="234"/>
      <point x="398" y="210"/>
      <point x="263" y="164" type="curve" smooth="yes"/>
      <point x="10" y="78" type="line"/>
    </contour>
    <contour>
      <point x="181" y="67" type="line"/>
      <point x="329" y="67" type="line"/>
      <point x="199" y="602" type="line"/>
      <point x="49" y="602" type="line"/>
    </contour>
  </outline>
</glyph>
<glyph name="widealef-hb" format="2">
  <advance width="827"/>
  <unicode hex="FB21"/>
  <note>
alefwide
</note>
  <outline>
    <contour>
      <point x="605" y="0" type="line"/>
      <point x="792" y="0" type="line"/>
      <point x="570" y="222" type="line"/>
      <point x="224" y="602" type="line"/>
      <point x="35" y="602" type="line"/>
      <point x="233" y="397" type="line"/>
    </contour>
    <contour>
      <point x="67" y="0" type="line"/>
      <point x="217" y="0" type="line"/>
      <point x="217" y="174" type="line" smooth="yes"/>
      <point x="217" y="283"/>
      <point x="254" y="348"/>
      <point x="324" y="348" type="curve"/>
      <point x="279" y="442" type="line"/>
      <point x="138" y="442"/>
      <point x="67" y="319"/>
      <point x="67" y="168" type="curve" smooth="yes"/>
    </contour>
    <contour>
      <point x="537" y="175" type="line"/>
      <point x="674" y="175"/>
      <point x="742" y="298"/>
      <point x="742" y="446" type="curve" smooth="yes"/>
      <point x="742" y="602" type="line"/>
      <point x="592" y="602" type="line"/>
      <point x="592" y="440" type="line" smooth="yes"/>
      <point x="592" y="332"/>
      <point x="563" y="267"/>
      <point x="487" y="267" type="curve"/>
    </contour>
  </outline>
</glyph>
<glyph name="widedalet-hb" format="2">
  <advance width="713"/>
  <unicode hex="FB22"/>
  <note>
daletwide
</note>
  <outline>
    <contour>
      <point x="447" y="0" type="line"/>
      <point x="597" y="0" type="line"/>
      <point x="597" y="554" type="line"/>
      <point x="447" y="554" type="line"/>
    </contour>
    <contour>
      <point x="10" y="476" type="line"/>
      <point x="688" y="476" type="line"/>
      <point x="688" y="602" type="line"/>
      <point x="10" y="602" type="line"/>
    </contour>
  </outline>
</glyph>
<glyph name="widehe-hb" format="2">
  <advance width="832"/>
  <unicode hex="FB23"/>
  <note>
hewide
</note>
  <outline>
    <contour>
      <point x="607" y="0" type="line"/>
      <point x="757" y="0" type="line"/>
      <point x="757" y="391" type="line" smooth="yes"/>
      <point x="757" y="533"/>
      <point x="681" y="602"/>
      <point x="526" y="602" type="curve" smooth="yes"/>
      <point x="80" y="602" type="line"/>
      <point x="80" y="476" type="line"/>
      <point x="520" y="476" type="line" smooth="yes"/>
      <point x="582" y="476"/>
      <point x="607" y="449"/>
      <point x="607" y="374" type="curve" smooth="yes"/>
    </contour>
    <contour>
      <point x="80" y="350" type="line"/>
      <point x="80" y="0" type="line"/>
      <point x="230" y="0" type="line"/>
      <point x="230" y="350" type="line"/>
    </contour>
  </outline>
</glyph>
<glyph name="widekaf-hb" format="2">
  <advance width="720"/>
  <unicode hex="FB24"/>
  <note>
kafwide
</note>
  <outline>
    <contour>
      <point x="25" y="0" type="line"/>
      <point x="377" y="0" type="line" smooth="yes"/>
      <point x="558" y="0"/>
      <point x="675" y="104"/>
      <point x="675" y="299" type="curve" smooth="yes"/>
      <point x="675" y="486"/>
      <point x="555" y="602"/>
      <point x="362" y="602" type="curve" smooth="yes"/>
      <point x="25" y="602" type="line"/>
      <point x="25" y="476" type="line"/>
      <point x="352" y="476" type="line" smooth="yes"/>
      <point x="466" y="476"/>
      <point x="522" y="418"/>
      <point x="522" y="296" type="curve" smooth="yes"/>
      <point x="522" y="171"/>
      <point x="471" y="126"/>
      <point x="377" y="126" type="curve" smooth="yes"/>
      <point x="25" y="126" type="line"/>
    </contour>
  </outline>
</glyph>
<glyph name="widelamed-hb" format="2">
  <advance width="680"/>
  <unicode hex="FB25"/>
  <note>
lamedwide
</note>
  <outline>
    <contour>
      <point x="299" y="0" type="line"/>
      <point x="456" y="0" type="line"/>
      <point x="650" y="509" type="line"/>
      <point x="650" y="602" type="line"/>
      <point x="160" y="602" type="line"/>
      <point x="160" y="760" type="line"/>
      <point x="10" y="760" type="line"/>
      <point x="10" y="476" type="line"/>
      <point x="487" y="476" type="line"/>
    </contour>
  </outline>
</glyph>
<glyph name="finalwidemem-hb" format="2">
  <advance width="832"/>
  <unicode hex="FB26"/>
  <note>
finalmemwide
</note>
  <outline>
    <contour>
      <point x="65" y="0" type="line"/>
      <point x="757" y="0" type="line"/>
      <point x="757" y="391" type="line" smooth="yes"/>
      <point x="757" y="533"/>
      <point x="681" y="602"/>
      <point x="526" y="602" type="curve" smooth="yes"/>
      <point x="65" y="602" type="line"/>
    </contour>
    <contour>
      <point x="215" y="127" type="line"/>
      <point x="215" y="475" type="line"/>
      <point x="520" y="475" type="line" smooth="yes"/>
      <point x="582" y="475"/>
      <point x="607" y="448"/>
      <point x="607" y="373" type="curve" smooth="yes"/>
      <point x="607" y="127" type="line"/>
    </contour>
  </outline>
</glyph>
<glyph name="wideresh-hb" format="2">
  <advance width="722"/>
  <unicode hex="FB27"/>
  <note>
reshwide
</note>
  <outline>
    <contour>
      <point x="497" y="0" type="line"/>
      <point x="647" y="0" type="line"/>
      <point x="647" y="391" type="line" smooth="yes"/>
      <point x="647" y="533"/>
      <point x="571" y="602"/>
      <point x="416" y="602" type="curve" smooth="yes"/>
      <point x="10" y="602" type="line"/>
      <point x="10" y="476" type="line"/>
      <point x="410" y="476" type="line" smooth="yes"/>
      <point x="472" y="476"/>
      <point x="497" y="449"/>
      <point x="497" y="374" type="curve" smooth="yes"/>
    </contour>
  </outline>
</glyph>
<glyph name="widetav-hb" format="2">
  <advance width="847"/>
  <unicode hex="FB28"/>
  <note>
tavwide
</note>
  <outline>
    <contour>
      <point x="622" y="0" type="line"/>
      <point x="772" y="0" type="line"/>
      <point x="772" y="391" type="line" smooth="yes"/>
      <point x="772" y="533"/>
      <point x="696" y="602"/>
      <point x="541" y="602" type="curve" smooth="yes"/>
      <point x="34" y="602" type="line"/>
      <point x="34" y="476" type="line"/>
      <point x="535" y="476" type="line" smooth="yes"/>
      <point x="597" y="476"/>
      <point x="622" y="449"/>
      <point x="622" y="374" type="curve" smooth="yes"/>
    </contour>
    <contour>
      <point x="30" y="0" type="line"/>
      <point x="121" y="0" type="line" smooth="yes"/>
      <point x="230" y="0"/>
      <point x="281" y="60"/>
      <point x="281" y="182" type="curve" smooth="yes"/>
      <point x="281" y="558" type="line"/>
      <point x="131" y="558" type="line"/>
      <point x="131" y="165" type="line" smooth="yes"/>
      <point x="131" y="139"/>
      <point x="117" y="126"/>
      <point x="97" y="126" type="curve" smooth="yes"/>
      <point x="30" y="126" type="line"/>
    </contour>
  </outline>
</glyph>
<glyph name="alternativeplus-hb" format="2">
  <advance width="572"/>
  <unicode hex="FB29"/>
  <note>
alt_plussign
</note>
  <outline>
    <contour>
      <point x="339" y="436" type="line"/>
      <point x="339" y="626" type="line"/>
      <point x="232" y="626" type="line"/>
      <point x="232" y="436" type="line"/>
      <point x="43" y="436" type="line"/>
      <point x="43" y="329" type="line"/>
      <point x="528" y="329" type="line"/>
      <point x="528" y="436" type="line"/>
    </contour>
  </outline>
</glyph>
<glyph name="aleflamed-hb" format="2">
  <advance width="692"/>
  <unicode hex="FB4F"/>
  <note>
aleflamed
</note>
  <anchor x="334" y="0" name="caret_1"/>
  <outline>
    <contour>
      <point x="485" y="0" type="line"/>
      <point x="657" y="0" type="line"/>
      <point x="227" y="602" type="line"/>
      <point x="55" y="602" type="line"/>
    </contour>
    <contour>
      <point x="5" y="476" type="line"/>
      <point x="193" y="476" type="line"/>
      <point x="193" y="602" type="line"/>
      <point x="5" y="602" type="line"/>
    </contour>
    <contour>
      <point x="5" y="512" type="line"/>
      <point x="155" y="512" type="line"/>
      <point x="155" y="760" type="line"/>
      <point x="5" y="760" type="line"/>
    </contour>
    <contour>
      <point x="420" y="175" type="line"/>
      <point x="557" y="175"/>
      <point x="625" y="293"/>
      <point x="625" y="436" type="curve" smooth="yes"/>
      <point x="625" y="602" type="line"/>
      <point x="475" y="602" type="line"/>
      <point x="475" y="436" type="line" smooth="yes"/>
      <point x="475" y="332"/>
      <point x="446" y="267"/>
      <point x="370" y="267" type="curve"/>
    </contour>
  </outline>
</glyph>
<glyph name="hatafpatah_zerowidthjoiner_siluqleft-hb" format="2">
  <anchor x="240" y="0" name="_bottom"/>
  <outline>
    <contour>
      <point x="50" y="-134" type="line"/>
      <point x="243" y="-134" type="line"/>
      <point x="243" y="-83" type="line"/>
      <point x="50" y="-83" type="line"/>
    </contour>
    <contour>
      <point x="270" y="-252" type="line"/>
      <point x="321" y="-252" type="line"/>
      <point x="321" y="-69" type="line"/>
      <point x="270" y="-69" type="line"/>
    </contour>
    <contour>
      <point x="388" y="-252" type="curve" smooth="yes"/>
      <point x="411" y="-252"/>
      <point x="430" y="-240"/>
      <point x="430" y="-212" type="curve" smooth="yes"/>
      <point x="430" y="-186"/>
      <point x="411" y="-174"/>
      <point x="388" y="-174" type="curve" smooth="yes"/>
      <point x="365" y="-174"/>
      <point x="347" y="-186"/>
      <point x="347" y="-212" type="curve"/>
      <point x="347" y="-240"/>
      <point x="365" y="-252"/>
    </contour>
    <contour>
      <point x="388" y="-148" type="curve" smooth="yes"/>
      <point x="411" y="-148"/>
      <point x="430" y="-136"/>
      <point x="430" y="-109" type="curve" smooth="yes"/>
      <point x="430" y="-82"/>
      <point x="411" y="-69"/>
      <point x="388" y="-69" type="curve" smooth="yes"/>
      <point x="365" y="-69"/>
      <point x="347" y="-82"/>
      <point x="347" y="-109" type="curve"/>
      <point x="347" y="-136"/>
      <point x="365" y="-148"/>
    </contour>
  </outline>
</glyph>
<glyph name="hatafsegol_zerowidthjoiner_siluqleft-hb" format="2">
  <anchor x="244" y="0" name="_bottom"/>
  <outline>
    <contour>
      <point x="278" y="-252" type="line"/>
      <point x="329" y="-252" type="line"/>
      <point x="329" y="-69" type="line"/>
      <point x="278" y="-69" type="line"/>
    </contour>
    <contour>
      <point x="151" y="-252" type="curve" smooth="yes"/>
      <point x="174" y="-252"/>
      <point x="193" y="-240"/>
      <point x="193" y="-212" type="curve" smooth="yes"/>
      <point x="193" y="-186"/>
      <point x="174" y="-174"/>
      <point x="151" y="-174" type="curve" smooth="yes"/>
      <point x="128" y="-174"/>
      <point x="110" y="-186"/>
      <point x="110" y="-212" type="curve"/>
      <point x="110" y="-240"/>
      <point x="128" y="-252"/>
    </contour>
    <contour>
      <point x="91" y="-148" type="curve" smooth="yes"/>
      <point x="114" y="-148"/>
      <point x="133" y="-136"/>
      <point x="133" y="-109" type="curve" smooth="yes"/>
      <point x="133" y="-82"/>
      <point x="114" y="-69"/>
      <point x="91" y="-69" type="curve" smooth="yes"/>
      <point x="68" y="-69"/>
      <point x="50" y="-82"/>
      <point x="50" y="-109" type="curve"/>
      <point x="50" y="-136"/>
      <point x="68" y="-148"/>
    </contour>
    <contour>
      <point x="210" y="-148" type="curve" smooth="yes"/>
      <point x="233" y="-148"/>
      <point x="252" y="-136"/>
      <point x="252" y="-109" type="curve" smooth="yes"/>
      <point x="252" y="-82"/>
      <point x="233" y="-69"/>
      <point x="210" y="-69" type="curve" smooth="yes"/>
      <point x="187" y="-69"/>
      <point x="169" y="-82"/>
      <point x="169" y="-109" type="curve"/>
      <point x="169" y="-136"/>
      <point x="187" y="-148"/>
    </contour>
    <contour>
      <point x="396" y="-252" type="curve" smooth="yes"/>
      <point x="419" y="-252"/>
      <point x="438" y="-240"/>
      <point x="438" y="-212" type="curve" smooth="yes"/>
      <point x="438" y="-186"/>
      <point x="419" y="-174"/>
      <point x="396" y="-174" type="curve" smooth="yes"/>
      <point x="373" y="-174"/>
      <point x="355" y="-186"/>
      <point x="355" y="-212" type="curve"/>
      <point x="355" y="-240"/>
      <point x="373" y="-252"/>
    </contour>
    <contour>
      <point x="396" y="-148" type="curve" smooth="yes"/>
      <point x="419" y="-148"/>
      <point x="438" y="-136"/>
      <point x="438" y="-109" type="curve" smooth="yes"/>
      <point x="438" y="-82"/>
      <point x="419" y="-69"/>
      <point x="396" y="-69" type="curve" smooth="yes"/>
      <point x="373" y="-69"/>
      <point x="355" y="-82"/>
      <point x="355" y="-109" type="curve"/>
      <point x="355" y="-136"/>
      <point x="373" y="-148"/>
    </contour>
  </outline>
</glyph>
